<svg width="61" height="60" fill="none" xmlns="http://www.w3.org/2000/svg"><path d="M25.637 46.416c.885-5.25 4.916-8.581 11.026-8.581H52.54c5.925 0 7.184-3.882 7.184-3.882-.885 5.25-3.295 8.581-9.405 8.581H34.033c-6.74 0-8.396 3.882-8.396 3.882z" fill="#DF2325"/><path d="M52.266 43.536c-1.348 2.021-2.91 2.199-5.872 2.199-2.963 0-6.442.065-11.257 0-5.184-.071-9.186 2.264-9.512 7.343 1.348-2.021 3.1-2.389 6.062-2.389 2.963 0 4.744-.065 9.56 0 5.177.078 9.226-2.204 11.02-7.153z" fill="#EE4523"/><path d="M25.637 57.292c0-2.021 2.772-3.106 6.085-3.106s9.726.439 12.451-1.481C43.431 54.92 36.663 60 29.9 60c-3.064 0-4.263-1.476-4.263-2.708z" fill="#FE5F3E"/><path d="M13.609 25.591c5.26.883 8.597 4.907 8.597 11.006v15.847c0 5.915 3.89 7.171 3.89 7.171-5.261-.883-8.598-3.289-8.598-9.387V33.97c0-6.732-3.89-8.38-3.89-8.38z" fill="#172C4F"/><path d="M16.493 52.165c-2.025-1.345-2.203-2.904-2.203-5.861 0-2.958-.065-6.43 0-11.237.071-5.174-2.268-9.168-7.357-9.494 2.025 1.345 2.393 3.093 2.393 6.05 0 2.958.065 4.736 0 9.543-.071 5.173 2.209 9.21 7.167 11z" fill="#264A74"/><path d="M2.72 25.593c2.024 0 3.11 2.767 3.11 6.074 0 3.301-.439 9.708 1.485 12.428C5.088 43.355 0 36.598 0 29.842c0-3.058 1.484-4.25 2.72-4.25z" fill="#345A87"/><path d="M34.48 13.584c-.885 5.25-4.916 8.581-11.026 8.581H7.571c-5.925 0-7.184 3.882-7.184 3.882.885-5.25 3.295-8.582 9.405-8.582h16.286c6.746 0 8.402-3.881 8.402-3.881z" fill="#DF2325"/><path d="M7.85 16.464c1.348-2.021 2.91-2.199 5.872-2.199 2.963 0 6.443-.065 11.258 0 5.183.071 9.185-2.264 9.512-7.343-1.348 2.021-3.1 2.389-6.063 2.389-2.962 0-4.744.065-9.559 0-5.177-.077-9.227 2.204-11.02 7.153z" fill="#EE4523"/><path d="M34.481 2.708c0 2.021-2.773 3.106-6.086 3.106s-9.725-.439-12.45 1.482C16.685 5.079 23.454 0 30.217 0c3.064 0 4.263 1.476 4.263 2.708z" fill="#FE5F3E"/><path d="M46.508 34.41c-5.26-.884-8.597-4.908-8.597-11.006V7.556c0-5.914-3.89-7.17-3.89-7.17 5.261.882 8.598 3.288 8.598 9.387v16.256c0 6.733 3.89 8.38 3.89 8.38z" fill="#172C4F"/><path d="M43.623 7.835c2.024 1.345 2.202 2.904 2.202 5.861 0 2.958.066 6.43 0 11.237-.07 5.174 2.268 9.168 7.357 9.494-2.025-1.345-2.393-3.093-2.393-6.05 0-2.958-.065-4.736 0-9.542.071-5.174-2.209-9.21-7.166-11z" fill="#264A74"/><path d="M57.397 34.41c-2.025 0-3.111-2.768-3.111-6.075 0-3.301.439-9.708-1.485-12.428 2.22.74 7.31 7.497 7.31 14.247.005 3.064-1.48 4.255-2.714 4.255z" fill="#345A87"/></svg>