<svg viewBox="0 0 470 419" xmlns="http://www.w3.org/2000/svg" xmlns:xlink="http://www.w3.org/1999/xlink"><style>:root&gt;svg{display:none}:root&gt;svg:target{display:block}</style><svg fill="none" viewBox="0 0 64 40" id="sprite--arc" xmlns="http://www.w3.org/2000/svg"><path d="M0 40c3.238-8.472 6.99-9.217 14.107-9.217 7.117 0 15.475-.274 27.043 0C53.602 31.08 63.216 21.292 64 0c-3.238 8.472-7.446 10.012-14.563 10.012-7.117 0-11.396.274-22.964 0C14.02 9.714 4.308 19.255 0 40z" fill="#DF2224"/></svg><svg fill="none" viewBox="0 0 132 55" id="sprite--big-arc" xmlns="http://www.w3.org/2000/svg"><path d="M0 54.178c6.678-11.463 14.415-12.472 29.095-12.472s31.919-.37 55.777 0c25.682.404 45.51-12.842 47.128-41.652-6.678 11.463-15.356 13.548-30.036 13.548-14.68 0-23.505.37-47.364 0C28.918 13.198 8.884 26.108 0 54.178z" fill="#DF2224"/></svg><svg fill="none" viewBox="0 0 470 419" id="sprite--left-background-cloud" xmlns="http://www.w3.org/2000/svg"><g filter="url(#cfilter0_i_3_738)"><path fill-rule="evenodd" clip-rule="evenodd" d="M43.433 410.107c104.237-29.45 18.67-106.605 55.043-154.693C142.66 197 491.186 123.286 468.434 26.699 399.956-127.104 194.156-34.04 142.454-89.585 92.331-143.434 4.424-227.864-63.816-255.388c-65.319-26.345-205.195-25.701-227.017 101.074-13.917 95.359 29.466 118.65-1.496 167.375-32.785 51.592-84.33 94.363-88.77 155.313-4.811 66.054 14.254 139.315 64.134 182.881 48.549 42.402 121.776 24.68 185.411 35.071 59.552 9.725 119.993 48.639 174.987 23.781z" fill="#162C4E"/></g><defs><filter id="cfilter0_i_3_738" x="-381.819" y="-269.155" width="851.319" height="691.427" filterUnits="userSpaceOnUse" color-interpolation-filters="sRGB"><feFlood flood-opacity="0" result="BackgroundImageFix"/><feBlend in="SourceGraphic" in2="BackgroundImageFix" result="shape"/><feColorMatrix in="SourceAlpha" values="0 0 0 0 0 0 0 0 0 0 0 0 0 0 0 0 0 0 127 0" result="hardAlpha"/><feOffset dy="4"/><feGaussianBlur stdDeviation="15"/><feComposite in2="hardAlpha" operator="arithmetic" k2="-1" k3="1"/><feColorMatrix values="0 0 0 0 0 0 0 0 0 0 0 0 0 0 0 0 0 0 1 0"/><feBlend in2="shape" result="effect1_innerShadow_3_738"/></filter></defs></svg><svg fill="none" viewBox="0 0 271 327" id="sprite--right-background-cloud" xmlns="http://www.w3.org/2000/svg"><g filter="url(#dfilter0_i_3_739)"><path fill-rule="evenodd" clip-rule="evenodd" d="M692.596 68.335c38.467-101.258-74.539-78.526-91.501-136.394-20.605-70.294 127.907-394.107 36.728-433.398-164.414-36.671-212.3 184.058-287.755 192.474-73.15 8.159-193.398 28.436-256.193 66.832C33.77-205.398-49.09-92.689 39.78.389c68.334 68.007 112.911 47.05 133.61 100.952 21.918 57.075 25.563 123.957 71.896 163.847 50.213 43.229 120.45 71.581 185.192 57.488 63.014-13.717 92.421-83.083 138.703-127.992 43.313-42.027 110.611-67.372 123.416-126.35z" fill="#162C4E"/></g><defs><filter id="dfilter0_i_3_739" x=".838" y="-505.564" width="699.692" height="835.887" filterUnits="userSpaceOnUse" color-interpolation-filters="sRGB"><feFlood flood-opacity="0" result="BackgroundImageFix"/><feBlend in="SourceGraphic" in2="BackgroundImageFix" result="shape"/><feColorMatrix in="SourceAlpha" values="0 0 0 0 0 0 0 0 0 0 0 0 0 0 0 0 0 0 127 0" result="hardAlpha"/><feOffset dy="4"/><feGaussianBlur stdDeviation="15"/><feComposite in2="hardAlpha" operator="arithmetic" k2="-1" k3="1"/><feColorMatrix values="0 0 0 0 0 0 0 0 0 0 0 0 0 0 0 0 0 0 1 0"/><feBlend in2="shape" result="effect1_innerShadow_3_739"/></filter></defs></svg></svg>